<?xml version="1.0" encoding="UTF-8" standalone="no"?>
<!-- Generator: Adobe Illustrator 22.0.1, SVG Export Plug-In . SVG Version: 6.00 Build 0)  -->

<svg
   xmlns:dc="http://purl.org/dc/elements/1.1/"
   xmlns:cc="http://creativecommons.org/ns#"
   xmlns:rdf="http://www.w3.org/1999/02/22-rdf-syntax-ns#"
   xmlns:svg="http://www.w3.org/2000/svg"
   xmlns="http://www.w3.org/2000/svg"
   xmlns:sodipodi="http://sodipodi.sourceforge.net/DTD/sodipodi-0.dtd"
   xmlns:inkscape="http://www.inkscape.org/namespaces/inkscape"
   version="1.1"
   id="Layer_1"
   x="0px"
   y="0px"
   viewBox="0 0 153.92851 41.891128"
   xml:space="preserve"
   sodipodi:docname="lexicoi.svg"
   inkscape:version="0.92.3 (2405546, 2018-03-11)"
   width="153.92851"
   height="41.891129"><metadata
   id="metadata69"><rdf:RDF><cc:Work
       rdf:about=""><dc:format>image/svg+xml</dc:format><dc:type
         rdf:resource="http://purl.org/dc/dcmitype/StillImage" /></cc:Work></rdf:RDF></metadata><defs
   id="defs67" /><sodipodi:namedview
   pagecolor="#ffffff"
   bordercolor="#666666"
   borderopacity="1"
   objecttolerance="10"
   gridtolerance="10"
   guidetolerance="10"
   inkscape:pageopacity="0"
   inkscape:pageshadow="2"
   inkscape:window-width="1278"
   inkscape:window-height="1080"
   id="namedview65"
   showgrid="true"
   inkscape:zoom="3.9990613"
   inkscape:cx="170.66698"
   inkscape:cy="-7.5510197"
   inkscape:window-x="-8"
   inkscape:window-y="50"
   inkscape:window-maximized="1"
   inkscape:current-layer="text79"
   showguides="false"><inkscape:grid
     type="xygrid"
     id="grid203"
     originx="-42.541224"
     originy="-20.610098" /></sodipodi:namedview>
<style
   type="text/css"
   id="style10">
	.st0{fill:#377DFF;}
	.st1{opacity:0.65;fill:#3F7DE0;}
	.st2{opacity:0.5;fill:#00DFFC;}
	.st3{opacity:0.7;fill:#377DFF;}
	.st4{fill:#FFFFFF;}
</style>
<g
   id="g22"
   transform="translate(-0.32198288,-10.153676)">
	
	
	
	
	
</g>




<g
   id="g34"
   transform="translate(-0.32198288,-10.153676)">
</g>
<g
   id="g36"
   transform="translate(-0.32198288,-10.153676)">
</g>
<g
   id="g38"
   transform="translate(-0.32198288,-10.153676)">
</g>
<g
   id="g40"
   transform="translate(-0.32198288,-10.153676)">
</g>
<g
   id="g42"
   transform="translate(-0.32198288,-10.153676)">
</g>
<g
   id="g44"
   transform="translate(-0.32198288,-10.153676)">
</g>
<g
   id="g46"
   transform="translate(-0.32198288,-10.153676)">
</g>
<g
   id="g48"
   transform="translate(-0.32198288,-10.153676)">
</g>
<g
   id="g50"
   transform="translate(-0.32198288,-10.153676)">
</g>
<g
   id="g52"
   transform="translate(-0.32198288,-10.153676)">
</g>
<g
   id="g54"
   transform="translate(-0.32198288,-10.153676)">
</g>
<g
   id="g56"
   transform="translate(-0.32198288,-10.153676)">
</g>
<g
   id="g58"
   transform="translate(-0.32198288,-10.153676)">
</g>
<g
   id="g60"
   transform="translate(-0.32198288,-10.153676)">
</g>
<g
   id="g62"
   transform="translate(-0.32198288,-10.153676)">
</g>
<text
   xml:space="preserve"
   style="font-style:normal;font-variant:normal;font-weight:normal;font-stretch:normal;font-size:40px;line-height:1.25;font-family:Roboto;-inkscape-font-specification:Roboto;letter-spacing:0px;word-spacing:0px;fill:#000000;fill-opacity:1;stroke:none"
   x="10.817563"
   y="16.953823"
   id="text75"><tspan
     sodipodi:role="line"
     id="tspan73"
     x="10.817563"
     y="53.734646" /></text>

<g
   aria-label="lexicoi"
   style="font-style:normal;font-weight:normal;font-size:40px;line-height:1.25;font-family:sans-serif;letter-spacing:0px;word-spacing:0px;fill:#000000;fill-opacity:1;stroke:none"
   id="text79"><path
     d="M 47.600384,35.181267 H 41.897259 V 4.7125168 h 5.703125 z"
     style="font-style:normal;font-variant:normal;font-weight:bold;font-stretch:normal;font-family:Roboto;-inkscape-font-specification:'Roboto Bold'"
     id="path89" /><path
     d="m 61.662884,35.591423 q -4.570313,0 -7.304688,-2.929687 -2.734375,-2.929688 -2.734375,-7.441407 v -0.78125 q 0,-4.707031 2.578125,-7.753906 2.597657,-3.046875 6.953125,-3.027344 4.277344,0 6.640625,2.578125 2.363282,2.578125 2.363282,6.972657 v 3.105468 H 57.54179 l -0.03906,0.117188 q 0.15625,2.089844 1.386718,3.4375 1.25,1.347656 3.378907,1.347656 1.894531,0 3.144531,-0.371094 1.25,-0.390625 2.734375,-1.210937 l 1.542969,3.515625 q -1.289063,1.054687 -3.378907,1.757812 -2.089843,0.683594 -4.648437,0.683594 z M 61.155071,18.052361 q -1.582031,0 -2.5,1.210937 -0.917968,1.210938 -1.132812,3.183594 l 0.05859,0.09766 h 6.992187 v -0.507812 q 0,-1.816407 -0.859375,-2.890625 -0.839844,-1.09375 -2.558594,-1.09375 z"
     style="font-style:normal;font-variant:normal;font-weight:bold;font-stretch:normal;font-family:Roboto;-inkscape-font-specification:'Roboto Bold'"
     id="path91" /><path
     d="m 81.428509,20.767204 h 0.117187 l 3.242188,-6.71875 h 6.445312 l -6.367187,10.449219 6.582031,10.683594 h -6.425781 l -3.457031,-7.011719 -3.457032,7.011719 H 71.662884 L 78.244915,24.497673 71.858196,14.048454 h 6.40625 z"
     style="font-style:normal;font-variant:normal;font-weight:bold;font-stretch:normal;font-family:Roboto;-inkscape-font-specification:'Roboto Bold'"
     id="path93" /><path
     d="M 99.944134,35.181267 H 94.241009 V 14.048454 h 5.703125 z m 0,-26.1914065 H 94.241009 V 4.7125168 h 5.703125 z"
     style="font-style:normal;font-variant:normal;font-weight:bold;font-stretch:normal;font-family:Roboto;-inkscape-font-specification:'Roboto Bold'"
     id="path95" /><path
     d="m 113.51835,31.216423 q 1.52344,0 2.44141,-0.878906 0.91797,-0.898438 0.91797,-2.382813 h 5.17578 l 0.0586,0.117188 q 0.0781,3.203125 -2.42187,5.371094 -2.48047,2.148437 -6.17188,2.148437 -4.72656,0 -7.28515,-2.988281 -2.5586,-2.988281 -2.5586,-7.675781 v -0.585938 q 0,-4.667969 2.53907,-7.675781 2.55859,-3.007813 7.28515,-3.007813 3.90625,0 6.28906,2.226563 2.40235,2.226562 2.32422,5.859375 l -0.0391,0.117187 h -5.19531 q 0,-1.640625 -0.89844,-2.714843 -0.89844,-1.09375 -2.48047,-1.09375 -2.26562,0 -3.20312,1.757812 -0.91797,1.757813 -0.91797,4.53125 v 0.585938 q 0,2.832031 0.91797,4.570312 0.9375,1.71875 3.22265,1.71875 z"
     style="font-style:normal;font-variant:normal;font-weight:bold;font-stretch:normal;font-family:Roboto;-inkscape-font-specification:'Roboto Bold'"
     id="path97" /><path
     d="m 124.47538,24.419548 q 0,-4.726562 2.63672,-7.734375 2.63672,-3.027344 7.30469,-3.027344 4.6875,0 7.34375,3.007813 2.65625,3.007812 2.65625,7.753906 v 0.410156 q 0,4.765625 -2.65625,7.773438 -2.63672,2.988281 -7.30469,2.988281 -4.6875,0 -7.34375,-2.988281 -2.63672,-3.007813 -2.63672,-7.773438 z m 5.6836,0.410156 q 0,2.890625 1.01562,4.648438 1.01563,1.738281 3.28125,1.738281 2.20703,0 3.22266,-1.757812 1.03516,-1.757813 1.03516,-4.628907 v -0.410156 q 0,-2.8125 -1.03516,-4.589844 -1.03516,-1.777343 -3.26172,-1.777343 -2.20703,0 -3.24219,1.796875 -1.01562,1.777343 -1.01562,4.570312 z"
     style="font-style:normal;font-variant:normal;font-weight:bold;font-stretch:normal;font-family:Roboto;-inkscape-font-specification:'Roboto Bold'"
     id="path99" /><path
     d="m 153.92851,35.181267 h -5.70313 V 14.048454 h 5.70313 z m 0,-26.1914065 h -5.70313 V 4.7125168 h 5.70313 z"
     style="font-style:normal;font-variant:normal;font-weight:bold;font-stretch:normal;font-family:Roboto;-inkscape-font-specification:'Roboto Bold'"
     id="path101" /></g>
<g
   inkscape:groupmode="layer"
   id="layer1"
   inkscape:label="lexicoi"
   transform="translate(-0.32198288,-10.153676)" /><text
   xml:space="preserve"
   style="font-style:normal;font-variant:normal;font-weight:normal;font-stretch:normal;font-size:40px;line-height:1.25;font-family:Roboto;-inkscape-font-specification:Roboto;letter-spacing:0px;word-spacing:0px;fill:#000000;fill-opacity:1;stroke:none"
   x="11.878471"
   y="24.026548"
   id="text171"><tspan
     sodipodi:role="line"
     id="tspan169"
     x="11.878471"
     y="60.807369" /></text>

<text
   xml:space="preserve"
   style="font-style:normal;font-weight:normal;font-size:40px;line-height:1.25;font-family:sans-serif;letter-spacing:0px;word-spacing:0px;fill:#000000;fill-opacity:1;stroke:none"
   x="5.6898355"
   y="3.2504137"
   id="text175"><tspan
     sodipodi:role="line"
     id="tspan173"
     x="5.6898355"
     y="39.743626" /></text>

<text
   xml:space="preserve"
   style="font-style:normal;font-variant:normal;font-weight:bold;font-stretch:normal;font-size:40px;line-height:1.25;font-family:Roboto;-inkscape-font-specification:'Roboto Bold';letter-spacing:0px;word-spacing:0px;fill:#000000;fill-opacity:1;stroke:none"
   x="9.5798349"
   y="37.287914"
   id="text179"><tspan
     sodipodi:role="line"
     id="tspan177"
     x="9.5798349"
     y="74.068733" /></text>

<path
   style="opacity:0.7;fill:#ccff00"
   inkscape:transform-center-x="-0.031257335"
   d="m 22.558387,41.782852 -0.187544,0.108279 v -0.216557 z"
   id="path811" /><path
   transform="rotate(12.490737,43.504804,44.43901)"
   style="opacity:1;fill:#000000"
   inkscape:transform-center-x="-3.0691052"
   inkscape:transform-center-y="-3.0691053"
   d="M -6.7149351e-8,49.200001 1.7984188,8.1616824 36.439436,30.238318 Z"
   id="path1113" /><g
   aria-label="L"
   style="font-style:normal;font-variant:normal;font-weight:bold;font-stretch:normal;font-size:40px;line-height:1.25;font-family:Roboto;-inkscape-font-specification:'Roboto Bold';letter-spacing:0px;word-spacing:0px;fill:#000000;fill-opacity:1;stroke:none"
   id="text1117"><path
     d="m 14.742483,28.153128 h 10.125 v 3.5 h -14.6875 V 8.9031277 h 4.5625 z"
     style="font-size:32px;fill:#ffffff"
     id="path84" /></g>
</svg>