<?xml version="1.0" encoding="UTF-8" standalone="no"?>
<!-- Generator: Adobe Illustrator 22.0.1, SVG Export Plug-In . SVG Version: 6.00 Build 0)  -->

<svg
   xmlns:dc="http://purl.org/dc/elements/1.1/"
   xmlns:cc="http://creativecommons.org/ns#"
   xmlns:rdf="http://www.w3.org/1999/02/22-rdf-syntax-ns#"
   xmlns:svg="http://www.w3.org/2000/svg"
   xmlns="http://www.w3.org/2000/svg"
   xmlns:sodipodi="http://sodipodi.sourceforge.net/DTD/sodipodi-0.dtd"
   xmlns:inkscape="http://www.inkscape.org/namespaces/inkscape"
   version="1.1"
   id="Layer_1"
   x="0px"
   y="0px"
   viewBox="0 0 112.03125 80.113833"
   xml:space="preserve"
   sodipodi:docname="lexicoi-vertical.svg"
   width="112.03125"
   height="80.113831"
   inkscape:version="0.92.3 (2405546, 2018-03-11)"><metadata
   id="metadata1496"><rdf:RDF><cc:Work
       rdf:about=""><dc:format>image/svg+xml</dc:format><dc:type
         rdf:resource="http://purl.org/dc/dcmitype/StillImage" /><dc:title /></cc:Work></rdf:RDF></metadata><defs
   id="defs1494" /><sodipodi:namedview
   pagecolor="#ffffff"
   bordercolor="#666666"
   borderopacity="1"
   objecttolerance="10"
   gridtolerance="10"
   guidetolerance="10"
   inkscape:pageopacity="0"
   inkscape:pageshadow="2"
   inkscape:window-width="1920"
   inkscape:window-height="1001"
   id="namedview1492"
   showgrid="false"
   inkscape:zoom="4.5736435"
   inkscape:cx="49.877232"
   inkscape:cy="24.8405"
   inkscape:window-x="-9"
   inkscape:window-y="41"
   inkscape:window-maximized="1"
   inkscape:current-layer="Layer_1" />
<style
   type="text/css"
   id="style1435">
	.st0{fill:#377DFF;}
	.st1{opacity:0.65;fill:#3F7DE0;}
	.st2{opacity:0.5;fill:#00DFFC;}
	.st3{opacity:0.7;fill:#377DFF;}
	.st4{fill:#FFFFFF;}
</style>
<g
   id="g1447"
   transform="translate(6.602067,-0.48155251)">
	
	
	
	
	
<g
   aria-label="lexicoi"
   style="font-style:normal;font-weight:normal;font-size:40px;line-height:1.25;font-family:sans-serif;letter-spacing:0px;word-spacing:0px;fill:#000000;fill-opacity:1;stroke:none"
   id="text79"><path
     d="M -0.89894199,80.185226 H -6.602067 v -30.46875 h 5.70312501 z"
     style="font-style:normal;font-variant:normal;font-weight:bold;font-stretch:normal;font-family:Roboto;-inkscape-font-specification:'Roboto Bold'"
     id="path186" /><path
     d="m 13.163558,80.595383 q -4.5703125,0 -7.3046875,-2.929688 -2.734375,-2.929687 -2.734375,-7.441406 v -0.78125 q 0,-4.707031 2.578125,-7.753906 2.5976563,-3.046875 6.9531255,-3.027344 4.277343,0 6.640625,2.578125 2.363281,2.578125 2.363281,6.972656 v 3.105469 H 9.0424643 l -0.039063,0.117187 q 0.15625,2.089844 1.3867192,3.4375 1.25,1.347657 3.378906,1.347657 1.894531,0 3.144531,-0.371094 1.25,-0.390625 2.734375,-1.210938 l 1.542969,3.515625 q -1.289063,1.054688 -3.378906,1.757813 -2.089844,0.683594 -4.648438,0.683594 z M 12.655746,63.05632 q -1.582032,0 -2.5,1.210938 -0.9179692,1.210937 -1.132813,3.183593 l 0.058594,0.09766 h 6.9921872 v -0.507813 q 0,-1.816406 -0.859375,-2.890625 -0.839843,-1.09375 -2.558593,-1.09375 z"
     style="font-style:normal;font-variant:normal;font-weight:bold;font-stretch:normal;font-family:Roboto;-inkscape-font-specification:'Roboto Bold'"
     id="path188" /><path
     d="m 32.929183,65.771164 h 0.117188 l 3.242187,-6.71875 h 6.445313 l -6.367188,10.449219 6.582031,10.683593 h -6.425781 l -3.457031,-7.011718 -3.457031,7.011718 H 23.163558 L 29.745589,69.501633 23.358871,59.052414 h 6.40625 z"
     style="font-style:normal;font-variant:normal;font-weight:bold;font-stretch:normal;font-family:Roboto;-inkscape-font-specification:'Roboto Bold'"
     id="path190" /><path
     d="M 51.444808,80.185226 H 45.741683 V 59.052414 h 5.703125 z m 0,-26.191406 h -5.703125 v -4.277344 h 5.703125 z"
     style="font-style:normal;font-variant:normal;font-weight:bold;font-stretch:normal;font-family:Roboto;-inkscape-font-specification:'Roboto Bold'"
     id="path192" /><path
     d="m 65.019027,76.220383 q 1.523437,0 2.441406,-0.878907 0.917969,-0.898437 0.917969,-2.382812 h 5.175781 l 0.05859,0.117187 q 0.07813,3.203125 -2.421875,5.371094 -2.480469,2.148438 -6.171875,2.148438 -4.726563,0 -7.285156,-2.988282 -2.558594,-2.988281 -2.558594,-7.675781 v -0.585937 q 0,-4.667969 2.539062,-7.675782 2.558594,-3.007812 7.285157,-3.007812 3.90625,0 6.289062,2.226562 2.402344,2.226563 2.324219,5.859375 l -0.03906,0.117188 h -5.195312 q 0,-1.640625 -0.898438,-2.714844 -0.898437,-1.09375 -2.480468,-1.09375 -2.265625,0 -3.203125,1.757813 -0.917969,1.757812 -0.917969,4.53125 v 0.585937 q 0,2.832031 0.917969,4.570313 0.9375,1.71875 3.222656,1.71875 z"
     style="font-style:normal;font-variant:normal;font-weight:bold;font-stretch:normal;font-family:Roboto;-inkscape-font-specification:'Roboto Bold'"
     id="path194" /><path
     d="m 75.976058,69.423508 q 0,-4.726563 2.636719,-7.734375 2.636719,-3.027344 7.304687,-3.027344 4.6875,0 7.34375,3.007812 2.65625,3.007813 2.65625,7.753907 v 0.410156 q 0,4.765625 -2.65625,7.773437 -2.636718,2.988282 -7.304687,2.988282 -4.6875,0 -7.34375,-2.988282 -2.636719,-3.007812 -2.636719,-7.773437 z m 5.683594,0.410156 q 0,2.890625 1.015625,4.648437 1.015625,1.738282 3.28125,1.738282 2.207031,0 3.222656,-1.757813 1.035156,-1.757812 1.035156,-4.628906 v -0.410156 q 0,-2.8125 -1.035156,-4.589844 -1.035156,-1.777344 -3.261719,-1.777344 -2.207031,0 -3.242187,1.796875 -1.015625,1.777344 -1.015625,4.570313 z"
     style="font-style:normal;font-variant:normal;font-weight:bold;font-stretch:normal;font-family:Roboto;-inkscape-font-specification:'Roboto Bold'"
     id="path196" /><path
     d="M 105.42918,80.185226 H 99.726058 V 59.052414 h 5.703122 z m 0,-26.191406 h -5.703122 v -4.277344 h 5.703122 z"
     style="font-style:normal;font-variant:normal;font-weight:bold;font-stretch:normal;font-family:Roboto;-inkscape-font-specification:'Roboto Bold'"
     id="path198" /></g>
</g>

<g
   id="g1461"
   transform="translate(6.602067,-0.48155251)">
</g>
<g
   id="g1463"
   transform="translate(6.602067,-0.48155251)">
</g>
<g
   id="g1465"
   transform="translate(6.602067,-0.48155251)">
</g>
<g
   id="g1467"
   transform="translate(6.602067,-0.48155251)">
</g>
<g
   id="g1469"
   transform="translate(6.602067,-0.48155251)">
</g>
<g
   id="g1471"
   transform="translate(6.602067,-0.48155251)">
</g>
<g
   id="g1473"
   transform="translate(6.602067,-0.48155251)">
</g>
<g
   id="g1475"
   transform="translate(6.602067,-0.48155251)">
</g>
<g
   id="g1477"
   transform="translate(6.602067,-0.48155251)">
</g>
<g
   id="g1479"
   transform="translate(6.602067,-0.48155251)">
</g>
<g
   id="g1481"
   transform="translate(6.602067,-0.48155251)">
</g>
<g
   id="g1483"
   transform="translate(6.602067,-0.48155251)">
</g>
<g
   id="g1485"
   transform="translate(6.602067,-0.48155251)">
</g>
<g
   id="g1487"
   transform="translate(6.602067,-0.48155251)">
</g>
<g
   id="g1489"
   transform="translate(6.602067,-0.48155251)">
</g>
<path
   style="opacity:0.7;fill:#ccff00"
   inkscape:transform-center-x="-0.031257335"
   d="m 56.767203,41.782856 -0.187544,0.108279 v -0.216558 z"
   id="path811" /><path
   transform="rotate(12.490737,60.609214,200.73501)"
   style="opacity:1;fill:#000000"
   inkscape:transform-center-x="-3.0691052"
   inkscape:transform-center-y="-3.0691053"
   d="M -6.7149351e-8,49.200001 1.7984188,8.1616824 36.439436,30.238318 Z"
   id="path1113" /><g
   aria-label="L"
   style="font-style:normal;font-variant:normal;font-weight:bold;font-stretch:normal;font-size:40px;line-height:1.25;font-family:Roboto;-inkscape-font-specification:'Roboto Bold';letter-spacing:0px;word-spacing:0px;fill:#000000;fill-opacity:1;stroke:none"
   id="text1117"><path
     d="m 48.951302,28.153126 h 10.125 v 3.5 h -14.6875 V 8.9031258 h 4.5625 z"
     style="font-size:32px;fill:#ffffff"
     id="path181" /></g>
</svg>